<?xml version="1.0" encoding="UTF-8"?>
<svg version="1.1" xmlns="http://www.w3.org/2000/svg" width="460" height="107">
<path d="M0 0 C151.8 0 303.6 0 460 0 C460 35.31 460 70.62 460 107 C308.2 107 156.4 107 0 107 C0 71.69 0 36.38 0 0 Z " fill="#FDFDFD" transform="translate(0,0)"/>
<path d="M0 0 C3 0.1875 3 0.1875 5 1.1875 C7.0994652 17.26673746 7.0994652 17.26673746 3.65820312 22.05419922 C0.77725742 24.75446705 -2.37169166 26.73873176 -5.7421875 28.765625 C-8.83574881 30.71285845 -8.99661488 31.17835826 -10.3828125 34.921875 C-10.68832031 36.53835937 -10.68832031 36.53835937 -11 38.1875 C-12 39.1875 -12 39.1875 -14.4375 39.375 C-17 39.1875 -17 39.1875 -19 37.1875 C-21.03467434 36.91063935 -21.03467434 36.91063935 -23.3515625 36.9921875 C-24.62773437 37.00185547 -24.62773437 37.00185547 -25.9296875 37.01171875 C-26.81914062 37.02847656 -27.70859375 37.04523437 -28.625 37.0625 C-29.5221875 37.07152344 -30.419375 37.08054688 -31.34375 37.08984375 C-33.56276586 37.1134503 -35.78125077 37.1463769 -38 37.1875 C-38 38.1775 -38 39.1675 -38 40.1875 C-38.66 40.1875 -39.32 40.1875 -40 40.1875 C-40.09667969 40.92484375 -40.19335938 41.6621875 -40.29296875 42.421875 C-41.09405482 45.55540503 -42.17492849 47.03902575 -44.3125 49.4375 C-44.90675781 50.12328125 -45.50101562 50.8090625 -46.11328125 51.515625 C-50.03941211 54.99468092 -54.50525738 54.32238708 -59.5625 54.3125 C-60.23474609 54.31636719 -60.90699219 54.32023437 -61.59960938 54.32421875 C-64.67499752 54.31811073 -67.06026313 54.16741229 -70 53.1875 C-70 52.1975 -70 51.2075 -70 50.1875 C-70.99 50.1875 -71.98 50.1875 -73 50.1875 C-73.33 48.8675 -73.66 47.5475 -74 46.1875 C-74.66 46.1875 -75.32 46.1875 -76 46.1875 C-77.90034016 42.17650536 -78.24338153 38.98222117 -78.1875 34.5625 C-78.18105469 33.43585937 -78.17460937 32.30921875 -78.16796875 31.1484375 C-78 28.1875 -78 28.1875 -77 25.1875 C-76.34 25.1875 -75.68 25.1875 -75 25.1875 C-74.814375 24.465625 -74.62875 23.74375 -74.4375 23 C-72.04838415 18.3256429 -67.90818248 15.82356083 -63 14.1875 C-56.48974152 13.40421446 -51.34367245 14.307105 -46 18.1875 C-42.18115129 21.65918064 -39.41233436 24.64811839 -38.0625 29.6875 C-38.041875 30.5125 -38.02125 31.3375 -38 32.1875 C-37.01 32.1875 -36.02 32.1875 -35 32.1875 C-34.731875 31.32125 -34.46375 30.455 -34.1875 29.5625 C-31.80667651 22.79594903 -29.62655624 19.13053475 -23.47265625 15.328125 C-19.63008298 13.55556356 -16.10358338 13.08461721 -12 14.1875 C-9.96043464 15.459487 -7.95237965 16.78536182 -6 18.1875 C-5.92652344 16.48980469 -5.92652344 16.48980469 -5.8515625 14.7578125 C-5.77653486 13.27601661 -5.70098703 11.794247 -5.625 10.3125 C-5.5940625 9.56613281 -5.563125 8.81976563 -5.53125 8.05078125 C-5.11334746 0.31958422 -5.11334746 0.31958422 0 0 Z " fill="#DFEDEC" transform="translate(359,22.8125)"/>
<path d="M0 0 C3 0.1875 3 0.1875 5 1.1875 C7.0994652 17.26673746 7.0994652 17.26673746 3.65820312 22.05419922 C0.77725742 24.75446705 -2.37169166 26.73873176 -5.7421875 28.765625 C-8.83574881 30.71285845 -8.99661488 31.17835826 -10.3828125 34.921875 C-10.58648437 35.99953125 -10.79015625 37.0771875 -11 38.1875 C-12 39.1875 -12 39.1875 -14.375 39.4375 C-15.24125 39.355 -16.1075 39.2725 -17 39.1875 C-17.38969971 38.69789795 -17.77939941 38.2082959 -18.1809082 37.70385742 C-21.02295935 35.33478217 -24.18835415 35.7068621 -27.73046875 35.67578125 C-28.85609978 35.64885445 -28.85609978 35.64885445 -30.00447083 35.62138367 C-32.3987569 35.56724813 -34.79284331 35.53337584 -37.1875 35.5 C-38.81187677 35.46682964 -40.43622717 35.43234024 -42.06054688 35.39648438 C-46.04022056 35.3115203 -50.0198347 35.24472535 -54 35.1875 C-54.27996826 35.82824463 -54.55993652 36.46898926 -54.84838867 37.12915039 C-56 39.1875 -56 39.1875 -58.42578125 40.12109375 C-61.77941199 41.51038236 -62.49304538 43.09277222 -64.1875 46.25 C-66.82463054 51.09981527 -66.82463054 51.09981527 -69 52.1875 C-67.8905928 48.70079166 -66.73662334 45.41265763 -65 42.1875 C-64.34 42.1875 -63.68 42.1875 -63 42.1875 C-63 38.5575 -63 34.9275 -63 31.1875 C-59.625 30.5625 -59.625 30.5625 -56 30.1875 C-55.34 30.8475 -54.68 31.5075 -54 32.1875 C-51.96532566 32.46436065 -51.96532566 32.46436065 -49.6484375 32.3828125 C-48.37226563 32.37314453 -48.37226563 32.37314453 -47.0703125 32.36328125 C-46.18085938 32.34652344 -45.29140625 32.32976563 -44.375 32.3125 C-43.4778125 32.30347656 -42.580625 32.29445312 -41.65625 32.28515625 C-39.43723414 32.2615497 -37.21874923 32.2286231 -35 32.1875 C-34.69191406 31.259375 -34.38382812 30.33125 -34.06640625 29.375 C-31.81755498 22.65315885 -29.53221552 19.07224292 -23.47265625 15.328125 C-19.63008298 13.55556356 -16.10358338 13.08461721 -12 14.1875 C-9.96043464 15.459487 -7.95237965 16.78536182 -6 18.1875 C-5.95101562 17.05570313 -5.90203125 15.92390625 -5.8515625 14.7578125 C-5.77653486 13.27601661 -5.70098703 11.794247 -5.625 10.3125 C-5.5940625 9.56613281 -5.563125 8.81976563 -5.53125 8.05078125 C-5.11334746 0.31958422 -5.11334746 0.31958422 0 0 Z " fill="#E2E3E6" transform="translate(359,22.8125)"/>
<path d="M0 0 C0.99 0.66 1.98 1.32 3 2 C3.41137202 5.03866799 3.13193156 7.92159703 3 11 C7.29 11 11.58 11 16 11 C16.29296875 17.0546875 16.29296875 17.0546875 16 19 C11.43362969 22.04424687 7.43284541 21.12783166 2 21 C2 26.28 2 31.56 2 37 C2.66 37 3.32 37 4 37 C4.2475 37.9590625 4.2475 37.9590625 4.5 38.9375 C5.76842467 41.16740979 5.76842467 41.16740979 7.84375 41.3828125 C9.26825141 41.50152095 10.69625842 41.58425808 12.125 41.62890625 C12.74375 41.75136719 13.3625 41.87382813 14 42 C16.14915785 45.22373677 16.38286803 46.26703674 16 50 C13.62672281 52.37327719 13.05025894 52.2957818 9.8125 52.3125 C3.88651655 52.1507958 -0.22784029 50.58901074 -4.68359375 46.59375 C-8.25795539 42.15173329 -7.54014408 37.0534358 -7.3125 31.625 C-7.28994141 30.60277344 -7.26738281 29.58054687 -7.24414062 28.52734375 C-7.18548082 26.01670419 -7.10345928 23.50912621 -7 21 C-9.31 21 -11.62 21 -14 21 C-14.1875 17.625 -14.1875 17.625 -14 14 C-11 12 -11 12 -7 12 C-7 8.37 -7 4.74 -7 1 C-4.47454232 -0.26272884 -2.80127043 -0.20497101 0 0 Z " fill="#2B2746" transform="translate(206,26)"/>
<path d="M0 0 C3.74102481 1.26869537 5.13530511 3.33335027 7.5703125 6.4140625 C8.00811035 6.9615918 8.4459082 7.50912109 8.89697266 8.07324219 C10.17520681 9.67772413 11.43632171 11.29446673 12.6953125 12.9140625 C13.283125 13.65140625 13.8709375 14.38875 14.4765625 15.1484375 C17.18527202 18.57415836 19.80783958 22.06058587 22.40625 25.5703125 C23.41911175 26.93501392 24.43213748 28.29959364 25.4453125 29.6640625 C25.95336426 30.35129395 26.46141602 31.03852539 26.98486328 31.74658203 C29.52168486 35.14415363 32.10656775 38.44602576 34.9140625 41.625 C35.42356445 42.20282227 35.93306641 42.78064453 36.45800781 43.37597656 C37.42312928 44.4551636 38.40105898 45.52308186 39.39355469 46.57714844 C41.71728705 49.16960003 42.66630624 50.65237555 43.0546875 54.15625 C42.6953125 56.9140625 42.6953125 56.9140625 41.6953125 58.9140625 C38.5234375 59.296875 38.5234375 59.296875 34.6953125 58.9140625 C32.54168127 56.86624552 31.10073209 55.18778312 29.4453125 52.7890625 C28.49277877 51.49435646 27.53963677 50.20009773 26.5859375 48.90625 C26.10705078 48.24077148 25.62816406 47.57529297 25.13476562 46.88964844 C22.90593347 43.8306746 20.54990943 40.87656895 18.1953125 37.9140625 C17.28175153 36.75453654 16.36899408 35.59437707 15.45703125 34.43359375 C15.00376465 33.85689941 14.55049805 33.28020508 14.08349609 32.68603516 C12.66391331 30.87398242 11.2512073 29.05674113 9.83984375 27.23828125 C8.89605058 26.02587252 7.95204295 24.8136307 7.0078125 23.6015625 C6.5550293 23.01769775 6.10224609 22.43383301 5.63574219 21.83227539 C2.32159612 17.59920701 -1.22325517 13.67217928 -5.0390625 9.87890625 C-6.3046875 7.9140625 -6.3046875 7.9140625 -6.0859375 5.28515625 C-4.92265782 1.75460241 -3.93748924 -0.14682163 0 0 Z " fill="#211C3E" transform="translate(51.3046875,19.0859375)"/>
<path d="M0 0 C3.76429014 0.4303397 4.51130907 1.14944503 6.859375 4.04296875 C7.54 4.87054688 8.220625 5.698125 8.921875 6.55078125 C9.64375 7.47632813 10.365625 8.401875 11.109375 9.35546875 C11.8725 10.32226562 12.635625 11.2890625 13.421875 12.28515625 C17.0485664 16.94638462 20.59545753 21.66531479 24.1328125 26.39453125 C24.64465088 27.07854004 25.15648926 27.76254883 25.68383789 28.46728516 C26.71137801 29.84283957 27.73663666 31.22010141 28.75952148 32.59912109 C30.99773023 35.60412019 33.24874786 38.56890386 35.68359375 41.41796875 C36.42222656 42.28421875 37.16085937 43.15046875 37.921875 44.04296875 C38.56769531 44.76871094 39.21351563 45.49445313 39.87890625 46.2421875 C41.109375 48.35546875 41.109375 48.35546875 40.87109375 51.0625 C40.109375 53.35546875 40.109375 53.35546875 39.109375 54.35546875 C36.484375 54.91796875 36.484375 54.91796875 33.109375 54.35546875 C30.29277766 52.10650199 28.26909392 49.22040201 26.109375 46.35546875 C25.67318848 45.78135254 25.23700195 45.20723633 24.78759766 44.61572266 C22.22878045 41.2447478 19.69147234 37.85841581 17.16796875 34.4609375 C14.42941464 30.77657193 11.65827754 27.11915146 8.859375 23.48046875 C8.06144531 22.44148438 7.26351562 21.4025 6.44140625 20.33203125 C3.57784605 16.67703481 0.61463237 13.11013736 -2.39453125 9.57421875 C-4.06770017 7.09286118 -4.68696429 5.33586937 -4.890625 2.35546875 C-2.890625 0.35546875 -2.890625 0.35546875 0 0 Z " fill="#268189" transform="translate(232.890625,22.64453125)"/>
<path d="M0 0 C0.07408587 4.09333905 0.1285704 8.18641933 0.16479492 12.28027344 C0.17989358 13.67324622 0.20037444 15.06617138 0.22631836 16.45898438 C0.26265122 18.45942885 0.27811192 20.46021827 0.29296875 22.4609375 C0.3086792 23.66540527 0.32438965 24.86987305 0.34057617 26.11083984 C0.17199097 27.54097412 0.17199097 27.54097412 0 29 C-3 31 -3 31 -6.0625 30.75 C-9 30 -9 30 -11 28 C-11.598125 28.495 -12.19625 28.99 -12.8125 29.5 C-17.51764111 31.71418405 -21.88365764 31.54956174 -27 31 C-31.73712442 29.21041966 -35.29272155 25.23335579 -38 21 C-38.73155167 18.5535772 -38.89479517 16.57751839 -39 14 C-35.7 14 -32.4 14 -29 14 C-28.566875 14.969375 -28.13375 15.93875 -27.6875 16.9375 C-26.2985139 20.27731765 -26.2985139 20.27731765 -23 21 C-18.78821757 21.46797583 -16.71400886 21.46565795 -13.125 19.125 C-10.86489951 15.8013228 -10.78567241 14.89122387 -10.6875 11.0625 C-10.54263169 7.83193662 -10.41436765 6.46685422 -8.2421875 4.01953125 C-2.91463777 0 -2.91463777 0 0 0 Z " fill="#242141" transform="translate(364,46)"/>
<path d="M0 0 C3.84129139 2.18953609 7.31445136 4.67579905 9.8125 8.375 C10.6875 12.25 10.6875 12.25 10.8125 15.375 C7.43420608 15.66022181 4.18005224 15.82727643 0.8125 15.375 C-1.125 13 -1.125 13 -2.1875 10.375 C-5.72180656 8.01879563 -7.02321287 7.88508387 -11.1875 8.375 C-15.41231746 10.6508823 -15.41231746 10.6508823 -18.1875 14.375 C-18.28334834 15.80990608 -18.31733393 17.24940439 -18.3125 18.6875 C-18.30992187 19.49316406 -18.30734375 20.29882812 -18.3046875 21.12890625 C-18.26137894 23.48777825 -18.26137894 23.48777825 -17.4375 26.125 C-17.1875 28.375 -17.1875 28.375 -19.125 31.1875 C-19.805625 31.909375 -20.48625 32.63125 -21.1875 33.375 C-22.1775 33.045 -23.1675 32.715 -24.1875 32.375 C-24.1875 31.715 -24.1875 31.055 -24.1875 30.375 C-24.8475 30.375 -25.5075 30.375 -26.1875 30.375 C-28.08784016 26.36400536 -28.43088153 23.16972117 -28.375 18.75 C-28.36855469 17.62335937 -28.36210937 16.49671875 -28.35546875 15.3359375 C-28.1875 12.375 -28.1875 12.375 -27.1875 9.375 C-26.5275 9.375 -25.8675 9.375 -25.1875 9.375 C-25.001875 8.653125 -24.81625 7.93125 -24.625 7.1875 C-20.05375037 -1.75624927 -8.71731667 -4.040141 0 0 Z " fill="#268088" transform="translate(309.1875,38.625)"/>
<path d="M0 0 C2.88689962 1.11750953 5.16150909 2.48417034 7 5 C6.69789858 6.34075487 6.35900432 7.67334828 6 9 C5.62035694 13.14687037 5.3483823 16.75882342 7.3125 20.5 C10.27821893 23.1361946 13.20266378 23.15924601 17 23.1875 C17.86625 23.20167969 18.7325 23.21585938 19.625 23.23046875 C22.26721537 23.16255938 22.26721537 23.16255938 25 21 C25.99 21 26.98 21 28 21 C28 21.66 28 22.32 28 23 C29.32 23.66 30.64 24.32 32 25 C32 26.32 32 27.64 32 29 C29.12645755 31.17457267 27.63563409 32 24 32 C24 32.66 24 33.32 24 34 C15.20773563 34.3956519 8.145257 34.59255607 1.1875 28.5625 C-3.95915076 22.53356625 -5.28972197 18.74172735 -5.2265625 10.8046875 C-4.91196474 6.91018416 -3.91717129 4.39191844 -2 1 C-1.34 0.67 -0.68 0.34 0 0 Z " fill="#231F40" transform="translate(107,44)"/>
<path d="M0 0 C4.62066106 3.19045645 8.03832407 5.63914814 10.625 10.8125 C10.625 14.7725 10.625 18.7325 10.625 22.8125 C1.385 22.8125 -7.855 22.8125 -17.375 22.8125 C-17.375 20.5025 -17.375 18.1925 -17.375 15.8125 C-11.435 15.8125 -5.495 15.8125 0.625 15.8125 C-1.69751426 10.92754475 -1.69751426 10.92754475 -4.375 9.8125 C-4.375 9.1525 -4.375 8.4925 -4.375 7.8125 C-5.79202513 7.95480808 -7.2086096 8.10150746 -8.625 8.25 C-9.41390625 8.33121094 -10.2028125 8.41242187 -11.015625 8.49609375 C-13.36645318 8.7398493 -13.36645318 8.7398493 -15.5 9.5 C-16.11875 9.603125 -16.7375 9.70625 -17.375 9.8125 C-20.125 7.375 -20.125 7.375 -22.375 4.8125 C-21.38030248 2.09968859 -20.78814618 1.02053297 -18.1640625 -0.30078125 C-12.28840251 -2.16881321 -5.79373758 -2.0385373 0 0 Z " fill="#1E193C" transform="translate(132.375,38.1875)"/>
<path d="M0 0 C4.17985056 -0.70017801 7.83573793 -0.87721743 12 0 C15.76035605 3.10320645 18.22900273 7.01966715 21 11 C22.76345057 13.18865142 24.59910577 15.31169665 26.4375 17.4375 C27.36310389 18.52769191 28.28758131 19.61884121 29.2109375 20.7109375 C30.61601893 22.36879535 32.02200216 24.0258469 33.43066406 25.68066406 C34.81175843 27.3047551 36.1875989 28.93316521 37.5625 30.5625 C38.36816406 31.51253906 39.17382812 32.46257812 40.00390625 33.44140625 C41.68480499 35.59598291 42.91543422 37.50842996 44 40 C39.72399599 40.95527749 36.26253209 41.10079043 32 40 C27.67069409 36.76391315 24.53993413 32.15361483 21.36230469 27.83789062 C19.47754547 25.29515453 17.46055874 22.87093009 15.4375 20.4375 C14.385625 19.138125 14.385625 19.138125 13.3125 17.8125 C11.56367535 15.68555111 9.79611707 13.58639862 8 11.5 C7.49154541 10.90775635 6.98309082 10.3155127 6.45922852 9.70532227 C5.46126747 8.54597109 4.45927787 7.39007289 3.45288086 6.23803711 C0 2.22111768 0 2.22111768 0 0 Z " fill="#201B3C" transform="translate(146,37)"/>
<path d="M0 0 C2.35964273 0.40683495 3.85934088 0.89814339 5.8125 2.3125 C6.204375 2.869375 6.59625 3.42625 7 4 C6.68554625 5.3379117 6.34805407 6.67043344 6 8 C5.88423251 9.83074172 5.82509859 11.6656449 5.8125 13.5 C5.79123047 14.90765625 5.79123047 14.90765625 5.76953125 16.34375 C6.00520097 19.05994337 6.61515346 20.67915046 8 23 C9.93719378 23.05406122 11.87481921 23.09282025 13.8125 23.125 C14.89144531 23.14820312 15.97039062 23.17140625 17.08203125 23.1953125 C20.19402868 23.23023717 20.19402868 23.23023717 23 21 C26.37494032 21.32660713 28.42357133 22.88364787 31 25 C29.26647781 29.08493347 27.4342505 30.42103431 23.4765625 32.234375 C17.35848058 34.12576941 10.56641936 34.03240039 4.625 31.5625 C0.00410204 28.7880278 -2.99654168 24.97918318 -5 20 C-5.8718321 13.86603841 -5.56484262 8.66747481 -3 3 C-2.34 3 -1.68 3 -1 3 C-0.67 2.01 -0.34 1.02 0 0 Z " fill="#298289" transform="translate(373,44)"/>
<path d="M0 0 C3.62533194 3.38308626 6.83459966 7.10531856 8 12 C8 14.97 8 17.94 8 21 C-0.91 21 -9.82 21 -19 21 C-19 18.69 -19 16.38 -19 14 C-13.39 14 -7.78 14 -2 14 C-4.32251426 9.11504475 -4.32251426 9.11504475 -7 8 C-7 7.34 -7 6.68 -7 6 C-7.74765625 6.11859375 -8.4953125 6.2371875 -9.265625 6.359375 C-17.32491609 7.41425603 -17.32491609 7.41425603 -20.75 5.3125 C-22 3 -22 3 -22.0625 0.875 C-21 -1 -21 -1 -19 -2.25 C-12.15854509 -3.96036373 -6.18425763 -3.61720729 0 0 Z " fill="#237F87" transform="translate(399,40)"/>
<path d="M0 0 C0.66 1.32 1.32 2.64 2 4 C2.66 4 3.32 4 4 4 C4.125 6.875 4.125 6.875 4 10 C3.34 10.66 2.68 11.32 2 12 C1.75456859 14.64787789 1.62650614 17.19903823 1.5859375 19.8515625 C1.56657135 20.62559418 1.5472052 21.39962585 1.5272522 22.19711304 C1.4674017 24.67296275 1.42104989 27.14885883 1.375 29.625 C1.33682518 31.30210377 1.29777375 32.97918784 1.2578125 34.65625 C1.16169591 38.77067353 1.07768561 42.88518886 1 47 C-0.15193848 45.8411731 -0.15193848 45.8411731 -1.32714844 44.65893555 C-3.10560718 42.88973623 -4.91901421 41.15497422 -6.765625 39.45703125 C-10.43277023 34.97639957 -9.74348404 29.19674388 -9.75 23.6875 C-9.78298947 21.50385109 -9.81926117 19.32024841 -9.859375 17.13671875 C-9.86420898 16.17467529 -9.86904297 15.21263184 -9.87402344 14.22143555 C-9.7511258 12.02689515 -9.7511258 12.02689515 -11 11 C-11.45714286 3.91428571 -11.45714286 3.91428571 -10 1 C-6.72032242 -0.63983879 -3.62861311 -0.17845638 0 0 Z " fill="#589CA1" transform="translate(273,21)"/>
<path d="M0 0 C8.6314674 6.90517392 8.6314674 6.90517392 9.51416016 11.92260742 C9.52237793 12.97295166 9.5305957 14.0232959 9.5390625 15.10546875 C9.56226563 16.25337891 9.58546875 17.40128906 9.609375 18.58398438 C9.61453125 19.77314453 9.6196875 20.96230469 9.625 22.1875 C9.65042775 24.55609504 9.68386555 26.92462207 9.7265625 29.29296875 C9.73550537 30.86340942 9.73550537 30.86340942 9.74462891 32.46557617 C9.74706277 35.16883243 9.74706277 35.16883243 12 37 C12.42312436 40.80811922 12.49220163 43.14399717 10.5625 46.5 C7.16029407 48.49153518 4.8877182 48.243694 1.06640625 47.6015625 C-1 47 -1 47 -3.125 45.375 C-4.36221275 42.01685111 -3.72888416 39.44563423 -3 36 C-1.515 35.505 -1.515 35.505 0 35 C0 23.45 0 11.9 0 0 Z " fill="#302C4A" transform="translate(46,31)"/>
<path d="M0 0 C2.4375 1.5 2.4375 1.5 4 4 C4.32111824 6.75845833 4.18630402 9.20543968 4 12 C3.01 12.495 3.01 12.495 2 13 C1.67 24.22 1.34 35.44 1 47 C-3.16823666 44.91588167 -6.00270752 43.22598457 -8 39 C-8.60743038 34.52459043 -8.4711509 30.13068566 -8.3125 25.625 C-8.28994141 24.41199219 -8.26738281 23.19898437 -8.24414062 21.94921875 C-8.1853937 18.96487498 -8.10329222 15.98307933 -8 13 C-8.99 12.67 -9.98 12.34 -11 12 C-11.8125 8.8125 -11.8125 8.8125 -12 5 C-8.6643553 0.10077185 -5.80969012 -0.95067657 0 0 Z " fill="#201B3D" transform="translate(93,19)"/>
<path d="M0 0 C1.68933922 1.6436814 3.35259924 3.3142876 5 5 C5.59208252 5.60166992 6.18416504 6.20333984 6.79418945 6.82324219 C8.58790452 10.0612992 8.37007945 13.22721832 8.29296875 16.828125 C8.28872391 17.57713074 8.28447906 18.32613647 8.28010559 19.09783936 C8.26335746 21.48226375 8.22571397 23.86583253 8.1875 26.25 C8.17244809 27.86977943 8.15876057 29.48957215 8.14648438 31.109375 C8.1134668 35.07324466 8.06171246 39.03647743 8 43 C5.6739143 43.38063221 3.33944736 43.71269945 1 44 C0 43 0 43 -0.12025452 41.24729919 C-0.11803391 40.48562943 -0.11581329 39.72395966 -0.11352539 38.93920898 C-0.11344986 38.07839218 -0.11337433 37.21757538 -0.11329651 36.33067322 C-0.10813522 35.39526199 -0.10297394 34.45985077 -0.09765625 33.49609375 C-0.0962413 32.54307877 -0.09482635 31.59006378 -0.09336853 30.60816956 C-0.08775152 27.55124835 -0.07519616 24.49439923 -0.0625 21.4375 C-0.05748719 19.37044376 -0.05292391 17.30338638 -0.04882812 15.23632812 C-0.03777656 10.15752412 -0.02050055 5.0787743 0 0 Z " fill="#1E7C85" transform="translate(229,33)"/>
<path d="M0 0 C2 2 2 2 2.1953125 4.3828125 C2.13020833 6.921875 2.06510417 9.4609375 2 12 C6.29 12 10.58 12 15 12 C15 13.98 15 15.96 15 18 C14.34 17.01 13.68 16.02 13 15 C11.08268082 15.11455681 9.1661325 15.24206258 7.25 15.375 C5.64898437 15.47941406 5.64898437 15.47941406 4.015625 15.5859375 C0.71533287 15.87451003 0.71533287 15.87451003 -3 18 C-3.33 23.61 -3.66 29.22 -4 35 C-4.99 35.495 -4.99 35.495 -6 36 C-6 31.05 -6 26.1 -6 21 C-8.64 21 -11.28 21 -14 21 C-14.1875 17.625 -14.1875 17.625 -14 14 C-11 12 -11 12 -7 12 C-7 8.37 -7 4.74 -7 1 C-4.48718205 -0.25640898 -2.78302919 -0.20872719 0 0 Z " fill="#191437" transform="translate(206,26)"/>
<path d="M0 0 C0 0.66 0 1.32 0 2 C-2.68142939 4.06583363 -5.40261584 6.02781631 -8.203125 7.92773438 C-12.71502934 11.19134518 -13.90625637 13.55104828 -15 19 C-16 20 -16 20 -18.375 20.25 C-19.24125 20.1675 -20.1075 20.085 -21 20 C-21.38969971 19.51039795 -21.77939941 19.0207959 -22.1809082 18.51635742 C-25.02295935 16.14728217 -28.18835415 16.5193621 -31.73046875 16.48828125 C-32.48088943 16.47033005 -33.23131012 16.45237885 -34.00447083 16.43388367 C-36.3987569 16.37974813 -38.79284331 16.34587584 -41.1875 16.3125 C-42.81187677 16.27932964 -44.43622717 16.24484024 -46.06054688 16.20898438 C-50.04022056 16.1240203 -54.0198347 16.05722535 -58 16 C-58.27996826 16.64074463 -58.55993652 17.28148926 -58.84838867 17.94165039 C-60 20 -60 20 -62.42578125 20.93359375 C-65.77941199 22.32288236 -66.49304538 23.90527222 -68.1875 27.0625 C-70.82463054 31.91231527 -70.82463054 31.91231527 -73 33 C-71.8905928 29.51329166 -70.73662334 26.22515763 -69 23 C-68.34 23 -67.68 23 -67 23 C-67 19.37 -67 15.74 -67 12 C-63.625 11.375 -63.625 11.375 -60 11 C-59.34 11.66 -58.68 12.32 -58 13 C-55.46580655 13.21190483 -53.04362224 13.30398746 -50.5078125 13.30078125 C-49.76546356 13.30506638 -49.02311462 13.3093515 -48.25827026 13.31376648 C-46.68635071 13.3195135 -45.11440456 13.32000729 -43.54248047 13.31567383 C-41.14113698 13.31252119 -38.74103415 13.33594087 -36.33984375 13.36132812 C-34.81250155 13.36360188 -33.28515605 13.36430426 -31.7578125 13.36328125 C-31.04102325 13.372491 -30.32423401 13.38170074 -29.58572388 13.39118958 C-25.33452772 13.351899 -23.19464148 12.77148271 -20 10 C-19.05640625 10.04125 -18.1128125 10.0825 -17.140625 10.125 C-12.84426886 9.95400075 -10.75789502 7.79628432 -7.75 5 C-2.20945946 0 -2.20945946 0 0 0 Z " fill="#277B81" transform="translate(363,42)"/>
<path d="M0 0 C3.70982591 1.78866606 5.52202274 2.74530968 7 6.625 C7 7.40875 7 8.1925 7 9 C6.34 9.66 5.68 10.32 5 11 C2.609375 10.80078125 2.609375 10.80078125 -0.25 10.3125 C-4.26526724 9.80168335 -4.26526724 9.80168335 -8.0234375 10.96875 C-10.14558372 12.74928244 -11.75752772 14.51505544 -13 17 C-15.97 17 -18.94 17 -22 17 C-20.90355738 11.22083371 -19.80075201 7.04742753 -14.9375 3.4375 C-9.84390525 0.08919656 -6.09960135 -0.73686459 0 0 Z " fill="#1D193B" transform="translate(347,37)"/>
<path d="M0 0 C2.26087131 0.01758065 4.45455286 0.13045291 6.69921875 0.39453125 C5.01571421 7.0399439 3.05508244 11.02239762 -2.30078125 15.39453125 C-5.82123249 16.69235764 -9.33461769 16.49419289 -13.05078125 16.45703125 C-14.22125 16.44800781 -15.39171875 16.43898438 -16.59765625 16.4296875 C-17.4896875 16.41808594 -18.38171875 16.40648438 -19.30078125 16.39453125 C-19.63078125 15.73453125 -19.96078125 15.07453125 -20.30078125 14.39453125 C-18.43950957 9.57214554 -18.43950957 9.57214554 -16.30078125 7.39453125 C-13.98340822 6.87668253 -11.83174767 6.83121086 -9.4609375 6.76953125 C-6.88267761 6.56490392 -6.88267761 6.56490392 -4.80078125 3.33203125 C-2.30078125 0.39453125 -2.30078125 0.39453125 0 0 Z " fill="#237E87" transform="translate(313.30078125,60.60546875)"/>
<path d="M0 0 C0.7425 0.804375 1.485 1.60875 2.25 2.4375 C5.2191011 5.25176869 5.2191011 5.25176869 9 6 C9.33 5.67 9.66 5.34 10 5 C11.51928038 4.92820036 13.04167482 4.91607993 14.5625 4.9375 C15.38878906 4.94652344 16.21507813 4.95554687 17.06640625 4.96484375 C17.70449219 4.97644531 18.34257813 4.98804688 19 5 C19 5.66 19 6.32 19 7 C19.639375 7.2475 20.27875 7.495 20.9375 7.75 C23 9 23 9 24 13 C18.06 13 12.12 13 6 13 C6 15.31 6 17.62 6 20 C15.24 20 24.48 20 34 20 C34 17.03 34 14.06 34 11 C34.33 11 34.66 11 35 11 C35 14.3 35 17.6 35 21 C25.1 21 15.2 21 5 21 C4.67 21.66 4.34 22.32 4 23 C2.83031047 20.66062093 2.86635779 19.22630632 2.875 16.625 C2.87242188 15.85414062 2.86984375 15.08328125 2.8671875 14.2890625 C2.99610212 12.0671811 3.38616283 10.13381492 4 8 C2.02 6.35 0.04 4.7 -2 3 C-1.34 2.67 -0.68 2.34 0 2 C0 1.34 0 0.68 0 0 Z " fill="#E1E1E4" transform="translate(109,41)"/>
<path d="M0 0 C0 9.24 0 18.48 0 28 C-0.33 28 -0.66 28 -1 28 C-1 19.09 -1 10.18 -1 1 C-3.64 2.98 -6.28 4.96 -9 7 C-9.66 7 -10.32 7 -11 7 C-10.95359375 7.66386719 -10.9071875 8.32773437 -10.859375 9.01171875 C-10.56208375 16.28473679 -10.56208375 16.28473679 -12.875 20.0625 C-15.64104423 22.58448151 -16.52233742 22.96394999 -20.3125 23.25 C-24.27985076 22.98102707 -25.99922957 22.57208894 -29 20 C-30.3125 16.8125 -30.3125 16.8125 -31 14 C-28.125 13.875 -28.125 13.875 -25 14 C-24.34 14.66 -23.68 15.32 -23 16 C-20.41645782 16.16687448 -20.41645782 16.16687448 -18 16 C-17.731875 14.865625 -17.46375 13.73125 -17.1875 12.5625 C-14.68618645 5.78709729 -7.31597034 -1.82899258 0 0 Z " fill="#F3F7F7" transform="translate(365,45)"/>
<path d="M0 0 C0.8353125 1.2065625 0.8353125 1.2065625 1.6875 2.4375 C4.3223963 5.35724996 5.16846944 5.73268391 9 6 C11.33301986 6.03824623 13.66711508 6.04574284 16 6 C16 6.66 16 7.32 16 8 C16.9590625 8.37125 16.9590625 8.37125 17.9375 8.75 C20 10 20 10 21 14 C15.39 14 9.78 14 4 14 C4 16.31 4 18.62 4 21 C12.91 21 21.82 21 31 21 C31 18.03 31 15.06 31 12 C31.33 12 31.66 12 32 12 C32 15.3 32 18.6 32 22 C22.76 22 13.52 22 4 22 C3.67 22.66 3.34 23.32 3 24 C2 23 2 23 1.8671875 20.63671875 C1.87105469 19.17685547 1.87105469 19.17685547 1.875 17.6875 C1.87242187 16.72199219 1.86984375 15.75648437 1.8671875 14.76171875 C2 12 2 12 2.5859375 9.74609375 C2.72257812 9.16988281 2.85921875 8.59367187 3 8 C1.26165827 5.74015575 -0.59701393 4.60199072 -3 3 C-2.01 2.67 -1.02 2.34 0 2 C0 1.34 0 0.68 0 0 Z " fill="#FAFDFB" transform="translate(376,40)"/>
<path d="M0 0 C8.7574679 7.00597432 8.7574679 7.00597432 9.31054688 11.55322266 C9.39413958 14.64972083 9.34834468 17.71653392 9.25 20.8125 C9.23195313 21.88693359 9.21390625 22.96136719 9.1953125 24.06835938 C9.14829392 26.71315465 9.0825916 29.35611589 9 32 C8.67 32 8.34 32 8 32 C7.67 26.72 7.34 21.44 7 16 C5.68 16 4.36 16 3 16 C3 22.93 3 29.86 3 37 C1.68 37 0.36 37 -1 37 C-0.67 24.79 -0.34 12.58 0 0 Z " fill="#1C1739" transform="translate(46,31)"/>
<path d="M0 0 C0 5.94 0 11.88 0 18 C0.99 18 1.98 18 3 18 C3 12.39 3 6.78 3 1 C3.66 0.67 4.32 0.34 5 0 C5 10.89 5 21.78 5 33 C3 33 3 33 1.50537109 31.68945312 C-3.68520858 25.52573834 -3.74038073 20.33226384 -3.375 12.5 C-3.34792969 11.39140625 -3.32085937 10.2828125 -3.29296875 9.140625 C-3.2227377 6.42502437 -3.1244462 3.71356545 -3 1 C-1 0 -1 0 0 0 Z " fill="#227D86" transform="translate(268,33)"/>
<path d="M0 0 C0.66 0 1.32 0 2 0 C4.1875 2.25 4.1875 2.25 6 5 C5.56449287 9.64540942 2.48354712 12.7962322 -0.5234375 16.13671875 C-4.25749401 18.94609565 -7.3524742 18.70352463 -11.875 18.31640625 C-12.57625 18.21199219 -13.2775 18.10757813 -14 18 C-11.58086478 13.64555661 -8.64512534 9.96836719 -5.4375 6.1875 C-4.94314453 5.59001953 -4.44878906 4.99253906 -3.93945312 4.37695312 C-2.67291249 2.87732788 -1.34104562 1.43338679 0 0 Z " fill="#1D193B" transform="translate(160,59)"/>
<path d="M0 0 C-3.78831972 6.09425346 -8.41493284 11.49400055 -13 17 C-16.44004627 15.85331791 -17.26635169 15.12056696 -19 12 C-19.1155802 7.72353247 -16.83949119 4.49516567 -14.09765625 1.3828125 C-9.89843685 -1.385388 -4.81390633 -0.49073802 0 0 Z " fill="#1D183B" transform="translate(189,38)"/>
<path d="M0 0 C5.75 -0.125 5.75 -0.125 8 1 C9.06791877 13.37429688 9.06791877 13.37429688 6.51171875 17.265625 C2.13379854 21 2.13379854 21 -1 21 C-1.0269501 18.06243881 -1.04681474 15.12512445 -1.0625 12.1875 C-1.07087891 11.35412109 -1.07925781 10.52074219 -1.08789062 9.66210938 C-1.09111328 8.85966797 -1.09433594 8.05722656 -1.09765625 7.23046875 C-1.10289307 6.49207764 -1.10812988 5.75368652 -1.11352539 4.99291992 C-1 3 -1 3 0 0 Z " fill="#231F40" transform="translate(356,23)"/>
<path d="M0 0 C1.72634701 1.62769861 3.36222208 3.28656386 5 5 C5.886875 5.86625 6.77375 6.7325 7.6875 7.625 C11.89201477 13.59925824 10.22537825 21.99777198 9.8125 28.9375 C9.73911981 30.49533075 9.66813291 32.05327619 9.59960938 33.61132812 C9.42737486 37.40943829 9.222591 41.20452171 9 45 C8.67 45 8.34 45 8 45 C8.00112793 44.04222656 8.00225586 43.08445313 8.00341797 42.09765625 C7.9997201 38.51129338 7.95668736 34.9262553 7.90234375 31.34033203 C7.88428295 29.79452097 7.87659713 28.24854979 7.87988281 26.70263672 C7.88276912 24.46718881 7.84716636 22.23499339 7.8046875 20 C7.81378143 19.31945557 7.82287537 18.63891113 7.83224487 17.93774414 C7.63151989 11.16660763 5.68840431 10.25120575 1 4 C0.67 17.53 0.34 31.06 0 45 C-2 43 -2 43 -2.22705078 39.00927734 C-2.22673337 37.28479831 -2.21539124 35.56029967 -2.1953125 33.8359375 C-2.1924826 32.92872955 -2.18965271 32.02152161 -2.18673706 31.08682251 C-2.17552153 28.18274877 -2.15041463 25.27898088 -2.125 22.375 C-2.11497197 20.40885861 -2.10584581 18.4427124 -2.09765625 16.4765625 C-2.07557772 11.65092341 -2.04103865 6.8255136 -2 2 C-1.34 2 -0.68 2 0 2 C0 1.34 0 0.68 0 0 Z " fill="#A9D3D4" transform="translate(229,30)"/>
<path d="M0 0 C0.66 0.66 1.32 1.32 2 2 C4.5577248 2.18734807 7.00512411 2.25574143 9.5625 2.23046875 C10.30959229 2.23001053 11.05668457 2.22955231 11.82641602 2.2290802 C13.40675443 2.22605775 14.98708986 2.21817164 16.56738281 2.20581055 C18.9903414 2.1875727 21.41291749 2.18530073 23.8359375 2.18554688 C25.36979498 2.18063092 26.90364986 2.17480226 28.4375 2.16796875 C29.16461182 2.16685593 29.89172363 2.1657431 30.64086914 2.16459656 C34.4468227 2.19040699 34.4468227 2.19040699 38 1 C37.67 1.99 37.34 2.98 37 4 C35.47862427 4.01401855 35.47862427 4.01401855 33.92651367 4.02832031 C30.16337158 4.06819362 26.4010494 4.13394342 22.63842773 4.20751953 C21.00995415 4.23574489 19.38134317 4.25695172 17.75268555 4.27099609 C15.41123029 4.29240532 13.07142955 4.33903964 10.73046875 4.390625 C9.63813179 4.39246796 9.63813179 4.39246796 8.52372742 4.39434814 C6.21746359 4.41746159 6.21746359 4.41746159 3 5 C1.13368554 6.87737926 1.13368554 6.87737926 0 9 C-0.82113281 9.30808594 -1.64226562 9.61617187 -2.48828125 9.93359375 C-5.78199394 11.33201298 -6.51630209 12.94860578 -8.1875 16.0625 C-10.82463054 20.91231527 -10.82463054 20.91231527 -13 22 C-11.8905928 18.51329166 -10.73662334 15.22515763 -9 12 C-8.34 12 -7.68 12 -7 12 C-7 8.37 -7 4.74 -7 1 C-4.48718205 -0.25640898 -2.78302919 -0.20872719 0 0 Z " fill="#4A9297" transform="translate(303,53)"/>
<path d="M0 0 C11.22 0 22.44 0 34 0 C34 0.33 34 0.66 34 1 C28.06 1.33 22.12 1.66 16 2 C15.67 2.99 15.34 3.98 15 5 C15 4.34 15 3.68 15 3 C12.03 3 9.06 3 6 3 C5.34 4.32 4.68 5.64 4 7 C2.66796875 8.73828125 2.66796875 8.73828125 1 10 C-1.26171875 10.29296875 -1.26171875 10.29296875 -3.6875 10.1875 C-4.89986328 10.14689453 -4.89986328 10.14689453 -6.13671875 10.10546875 C-6.75160156 10.07066406 -7.36648438 10.03585938 -8 10 C-7.875 7.6875 -7.875 7.6875 -7 5 C-4 3.3125 -4 3.3125 -1 2 C-0.67 1.34 -0.34 0.68 0 0 Z " fill="#D1E3E3" transform="translate(305,58)"/>
<path d="M0 0 C0.99 0 1.98 0 3 0 C3.02505615 0.60996826 3.0501123 1.21993652 3.07592773 1.84838867 C3.1924058 4.62827898 3.31489632 7.4078734 3.4375 10.1875 C3.47681641 11.14720703 3.51613281 12.10691406 3.55664062 13.09570312 C3.59853516 14.02705078 3.64042969 14.95839844 3.68359375 15.91796875 C3.72025146 16.77156982 3.75690918 17.6251709 3.79467773 18.50463867 C4.00531094 21.06454594 4.44841536 23.49333243 5 26 C2 28 2 28 -0.1875 27.625 C-1.0846875 27.315625 -1.0846875 27.315625 -2 27 C-2.042721 25.33388095 -2.04063832 23.66617115 -2 22 C-1.67 21.67 -1.34 21.34 -1 21 C-0.84313751 19.44051458 -0.74923361 17.87457332 -0.68359375 16.30859375 C-0.62075195 14.89223633 -0.62075195 14.89223633 -0.55664062 13.44726562 C-0.51732422 12.45404297 -0.47800781 11.46082031 -0.4375 10.4375 C-0.37272461 8.94186523 -0.37272461 8.94186523 -0.30664062 7.41601562 C-0.20019702 4.9441585 -0.09818072 2.4721969 0 0 Z " fill="#C1BFC8" transform="translate(49,47)"/>
<path d="M0 0 C1.59142848 3.18285696 1.00008284 6.5870442 0.87890625 10.0703125 C0.85529526 10.86654022 0.83168427 11.66276794 0.80735779 12.48312378 C0.73067789 15.03059529 0.64667239 17.5777661 0.5625 20.125 C0.50928363 21.85024562 0.4565432 23.57550598 0.40429688 25.30078125 C0.27505693 29.53404522 0.13924581 33.76705382 0 38 C-3.9955629 38 -4.90521798 36.88824369 -7.75 34.125 C-14.88360325 25.42407842 -12.25844072 13.73398336 -11.23461914 3.2121582 C-11.15719482 2.482146 -11.07977051 1.75213379 -11 1 C-10.67 1 -10.34 1 -10 1 C-10.00112793 1.75095947 -10.00225586 2.50191895 -10.00341797 3.27563477 C-9.99125069 6.70548426 -9.93352773 10.13314102 -9.875 13.5625 C-9.87757812 14.74392578 -9.88015625 15.92535156 -9.8828125 17.14257812 C-9.7335529 23.80328761 -9.34077624 28.06250696 -4.47705078 32.84350586 C-2.98621531 34.08992677 -2.98621531 34.08992677 -1 35 C-1.00523682 33.97527588 -1.01047363 32.95055176 -1.01586914 31.89477539 C-1.03391969 28.10604724 -1.0454322 24.31732291 -1.05493164 20.52856445 C-1.05997174 18.88630536 -1.06680378 17.24405077 -1.07543945 15.60180664 C-1.08751926 13.24624521 -1.09323139 10.89074291 -1.09765625 8.53515625 C-1.10281754 7.79660904 -1.10797882 7.05806183 -1.11329651 6.2971344 C-1.1134925 4.53101912 -1.06194719 2.76502854 -1 1 C-0.67 0.67 -0.34 0.34 0 0 Z " fill="#9E9CA8" transform="translate(95,31)"/>
<path d="M0 0 C4.62049883 3.26152859 8.52066494 6.87794377 11 12 C11.57556068 16.55550156 11.25619604 20.93567902 10.875 25.5 C10.80023438 26.70398438 10.72546875 27.90796875 10.6484375 29.1484375 C10.46090155 32.10212871 10.24408928 35.05053479 10 38 C9.67 38 9.34 38 9 38 C9.00636475 37.25427734 9.01272949 36.50855469 9.01928711 35.74023438 C9.02802976 32.32583017 8.98319181 28.91409229 8.9375 25.5 C8.94845703 24.32695313 8.95941406 23.15390625 8.97070312 21.9453125 C8.94814453 20.79804687 8.92558594 19.65078125 8.90234375 18.46875 C8.89710693 17.42138672 8.89187012 16.37402344 8.88647461 15.29492188 C7.91418672 10.7171229 7.91418672 10.7171229 1 4 C0.67 15.22 0.34 26.44 0 38 C-0.33 38 -0.66 38 -1 38 C-1.02464928 32.74894558 -1.04283568 27.49792455 -1.05493164 22.24682617 C-1.05997218 20.45905979 -1.06680454 18.67129755 -1.07543945 16.88354492 C-1.0875173 14.31948832 -1.09323094 11.75548603 -1.09765625 9.19140625 C-1.10281754 8.3872377 -1.10797882 7.58306915 -1.11329651 6.75453186 C-1.11349215 4.83598285 -1.06201983 2.91754632 -1 1 C-0.67 0.67 -0.34 0.34 0 0 Z " fill="#9E9BA8" transform="translate(46,28)"/>
<path d="M0 0 C-0.33 1.32 -0.66 2.64 -1 4 C-2.17369141 3.98259766 -2.17369141 3.98259766 -3.37109375 3.96484375 C-4.38300781 3.95582031 -5.39492187 3.94679687 -6.4375 3.9375 C-7.95150391 3.92009766 -7.95150391 3.92009766 -9.49609375 3.90234375 C-11.94021067 3.71387324 -11.94021067 3.71387324 -13 5 C-13.15582303 6.34015221 -13.25044142 7.68758903 -13.31640625 9.03515625 C-13.37924805 10.24848633 -13.37924805 10.24848633 -13.44335938 11.48632812 C-13.48267578 12.33646484 -13.52199219 13.18660156 -13.5625 14.0625 C-13.60568359 14.91650391 -13.64886719 15.77050781 -13.69335938 16.65039062 C-13.79976702 18.76672037 -13.90041731 20.88333813 -14 23 C-14.99 23 -15.98 23 -17 23 C-17.13548815 20.26916098 -17.23429855 17.54508193 -17.3125 14.8125 C-17.35439453 14.04357422 -17.39628906 13.27464844 -17.43945312 12.48242188 C-17.53043055 8.24287392 -17.38073303 6.51208926 -14.76953125 3 C-12.00550603 1.00397615 -10.71385971 0.34239555 -7.375 0.1875 C-6.61960938 0.13980469 -5.86421875 0.09210937 -5.0859375 0.04296875 C-3.39092408 0.00805274 -1.695373 0 0 0 Z " fill="#9C9AA9" transform="translate(219,40)"/>
<path d="M0 0 C0.33 0.66 0.66 1.32 1 2 C6.28 2 11.56 2 17 2 C17.33 1.34 17.66 0.68 18 0 C18 0.99 18 1.98 18 3 C12.39 3 6.78 3 1 3 C1 5.31 1 7.62 1 10 C9.91 10 18.82 10 28 10 C28 7.03 28 4.06 28 1 C28.33 1 28.66 1 29 1 C29 4.3 29 7.6 29 11 C19.76 11 10.52 11 1 11 C0.67 11.66 0.34 12.32 0 13 C-1 12 -1 12 -1.1328125 9.53125 C-1.13023437 8.5309375 -1.12765625 7.530625 -1.125 6.5 C-1.12757813 5.4996875 -1.13015625 4.499375 -1.1328125 3.46875 C-1 1 -1 1 0 0 Z " fill="#ACD0D2" transform="translate(379,51)"/>
<path d="M0 0 C0.33 0 0.66 0 1 0 C1 2.97 1 5.94 1 9 C-0.98 9.66 -2.96 10.32 -5 11 C-5.33 13.31 -5.66 15.62 -6 18 C-3.69 18 -1.38 18 1 18 C1 23.94 1 29.88 1 36 C0.67 36 0.34 36 0 36 C0 30.39 0 24.78 0 19 C-2.31 19 -4.62 19 -7 19 C-7.33 16.69 -7.66 14.38 -8 12 C-9.65 13.65 -11.3 15.3 -13 17 C-13.66 16.67 -14.32 16.34 -15 16 C-13.35 14.02 -11.7 12.04 -10 10 C-13.3 9.67 -16.6 9.34 -20 9 C-20 8.67 -20 8.34 -20 8 C-16.04 8 -12.08 8 -8 8 C-8 8.66 -8 9.32 -8 10 C-7.13375 9.505 -7.13375 9.505 -6.25 9 C-4 8 -4 8 0 8 C0 5.36 0 2.72 0 0 Z " fill="#A1A0AA" transform="translate(198,29)"/>
<path d="M0 0 C1.56544436 3.13088871 1.00148591 6.42714023 0.87890625 9.8515625 C0.85529526 10.62559418 0.83168427 11.39962585 0.80735779 12.19711304 C0.73068562 14.6732603 0.64667684 17.14909759 0.5625 19.625 C0.50928285 21.30206808 0.45654243 22.97915137 0.40429688 24.65625 C0.27506572 28.77103023 0.13925354 32.88554725 0 37 C-1.485 37.495 -1.485 37.495 -3 38 C-4.5058745 36.21326795 -6.0045485 34.42046492 -7.5 32.625 C-8.3353125 31.62726562 -9.170625 30.62953125 -10.03125 29.6015625 C-12 27 -12 27 -12 25 C-8.54804233 26.4258086 -6.8985744 28.09746334 -4.75 31.125 C-3.96882813 32.21167969 -3.96882813 32.21167969 -3.171875 33.3203125 C-2.78515625 33.87460938 -2.3984375 34.42890625 -2 35 C-1.97494385 33.97527588 -1.9498877 32.95055176 -1.92407227 31.89477539 C-1.83015516 28.10590324 -1.72989683 24.31722119 -1.62768555 20.52856445 C-1.58427703 18.88635697 -1.54260642 17.24410261 -1.50268555 15.60180664 C-1.4451256 13.24611255 -1.38139108 10.89065572 -1.31640625 8.53515625 C-1.29133751 7.42733543 -1.29133751 7.42733543 -1.26576233 6.2971344 C-1.11387171 1.11387171 -1.11387171 1.11387171 0 0 Z " fill="#C6E0E0" transform="translate(275,32)"/>
<path d="M0 0 C1.17829199 2.35658397 1.04414372 3.52573236 0.87890625 6.1328125 C0.83056641 6.93847656 0.78222656 7.74414062 0.73242188 8.57421875 C0.64831055 9.83685547 0.64831055 9.83685547 0.5625 11.125 C0.51029297 11.97449219 0.45808594 12.82398438 0.40429688 13.69921875 C0.27448622 15.79979124 0.1378826 17.89994191 0 20 C3.465 17.525 3.465 17.525 7 15 C7.66 15.33 8.32 15.66 9 16 C8 19 8 19 6.375 19.875 C5.59125 20.24625 4.8075 20.6175 4 21 C1.62532063 22.6102976 -0.68932404 24.29944634 -3 26 C-3.99 25.34 -4.98 24.68 -6 24 C-4.68 23.34 -3.36 22.68 -2 22 C-1.96241577 21.05362671 -1.96241577 21.05362671 -1.92407227 20.08813477 C-1.80845863 17.24603175 -1.68557684 14.40428917 -1.5625 11.5625 C-1.50352539 10.07266602 -1.50352539 10.07266602 -1.44335938 8.55273438 C-1.40146484 7.60849609 -1.35957031 6.66425781 -1.31640625 5.69140625 C-1.26141968 4.37958374 -1.26141968 4.37958374 -1.20532227 3.04125977 C-1 1 -1 1 0 0 Z " fill="#A8A6B2" transform="translate(355,24)"/>
<path d="M0 0 C1.67542976 0.28604898 3.34385343 0.61781233 5 1 C5.042721 2.66611905 5.04063832 4.33382885 5 6 C4.67 6.33 4.34 6.66 4 7 C3.84417697 8.34015221 3.74955858 9.68758903 3.68359375 11.03515625 C3.64169922 11.84404297 3.59980469 12.65292969 3.55664062 13.48632812 C3.51732422 14.33646484 3.47800781 15.18660156 3.4375 16.0625 C3.39431641 16.91650391 3.35113281 17.77050781 3.30664062 18.65039062 C3.20023298 20.76672037 3.09958269 22.88333813 3 25 C2.34 25 1.68 25 1 25 C1.495 16.09 1.495 16.09 2 7 C1.01 6.67 0.02 6.34 -1 6 C-1.042721 4.33388095 -1.04063832 2.66617115 -1 1 C-0.67 0.67 -0.34 0.34 0 0 Z " fill="#EAF5F5" transform="translate(267,25)"/>
<path d="M0 0 C0.33 0 0.66 0 1 0 C1 3.3 1 6.6 1 10 C-8.9 10 -18.8 10 -29 10 C-29.33 10.66 -29.66 11.32 -30 12 C-30.33 10.35 -30.66 8.7 -31 7 C-30.34 7 -29.68 7 -29 7 C-29 5.35 -29 3.7 -29 2 C-28.67 2 -28.34 2 -28 2 C-28 4.31 -28 6.62 -28 9 C-18.76 9 -9.52 9 0 9 C0 6.03 0 3.06 0 0 Z " fill="#9C9AA7" transform="translate(143,52)"/>
<path d="M0 0 C0.19676277 8.29683005 0.25943749 15.95075394 -2 24 C-2.33 24 -2.66 24 -3 24 C-3 16.41 -3 8.82 -3 1 C-1 0 -1 0 0 0 Z " fill="#1C747B" transform="translate(268,33)"/>
<path d="M0 0 C1.32 0.33 2.64 0.66 4 1 C4 10.24 4 19.48 4 29 C3.67 29 3.34 29 3 29 C3 20.09 3 11.18 3 2 C0.36 3.98 -2.28 5.96 -5 8 C-5.99 7.67 -6.98 7.34 -8 7 C-6.76446724 5.79745476 -5.51097661 4.61333768 -4.25 3.4375 C-3.55390625 2.77621094 -2.8578125 2.11492188 -2.140625 1.43359375 C-1.43421875 0.96050781 -0.7278125 0.48742188 0 0 Z " fill="#E2E3E6" transform="translate(361,44)"/>
<path d="M0 0 C2.625 0.375 2.625 0.375 5 1 C5.625 3.375 5.625 3.375 6 6 C5.34 6.66 4.68 7.32 4 8 C1.375 7.625 1.375 7.625 -1 7 C-1.625 4.625 -1.625 4.625 -2 2 C-1.34 1.34 -0.68 0.68 0 0 Z " fill="#DEDEE2" transform="translate(87,23)"/>
<path d="M0 0 C1.1875 1.625 1.1875 1.625 2 4 C0.625 7.25 0.625 7.25 -1 10 C0.65 7.36 2.3 4.72 4 2 C5.19338573 6.77354291 4.45563239 7.90727934 2 12 C1.01 12.495 1.01 12.495 0 13 C-0.99 12.67 -1.98 12.34 -3 12 C-3 11.01 -3 10.02 -3 9 C-3.99 8.67 -4.98 8.34 -6 8 C-5.195625 7.236875 -4.39125 6.47375 -3.5625 5.6875 C-0.83200976 3.20569102 -0.83200976 3.20569102 0 0 Z " fill="#C6E0E0" transform="translate(292,64)"/>
<path d="M0 0 C0 0.66 0 1.32 0 2 C-2.71019414 4.09578295 -5.46239096 6.08417212 -8.29101562 8.015625 C-11.42649239 10.28841258 -12.87263341 11.53426466 -13.91015625 15.328125 C-13.93980469 16.20984375 -13.96945312 17.0915625 -14 18 C-14.33 18 -14.66 18 -15 18 C-15 16.02 -15 14.04 -15 12 C-17.31 12 -19.62 12 -22 12 C-21.34 11.34 -20.68 10.68 -20 10 C-18.64648438 10.0928125 -18.64648438 10.0928125 -17.265625 10.1875 C-12.90881649 9.93734832 -10.80903096 7.84382275 -7.75 5 C-2.20945946 0 -2.20945946 0 0 0 Z " fill="#619DA1" transform="translate(363,42)"/>
<path d="M0 0 C0.8353125 1.2065625 0.8353125 1.2065625 1.6875 2.4375 C4.3223963 5.35724996 5.16846944 5.73268391 9 6 C11.33301986 6.03824623 13.66711508 6.04574284 16 6 C16 6.33 16 6.66 16 7 C15.21753906 7.04898438 14.43507813 7.09796875 13.62890625 7.1484375 C12.61699219 7.22320312 11.60507812 7.29796875 10.5625 7.375 C9.55316406 7.44460937 8.54382813 7.51421875 7.50390625 7.5859375 C6.67761719 7.72257812 5.85132813 7.85921875 5 8 C4.67 8.66 4.34 9.32 4 10 C3.401875 9.21625 2.80375 8.4325 2.1875 7.625 C0.08914751 4.85425677 0.08914751 4.85425677 -3 3 C-2.01 2.67 -1.02 2.34 0 2 C0 1.34 0 0.68 0 0 Z " fill="#B0D3D4" transform="translate(376,40)"/>
<path d="M0 0 C-0.33 1.32 -0.66 2.64 -1 4 C-1.75925781 3.97679687 -2.51851562 3.95359375 -3.30078125 3.9296875 C-4.79158203 3.90261719 -4.79158203 3.90261719 -6.3125 3.875 C-7.29863281 3.85179687 -8.28476563 3.82859375 -9.30078125 3.8046875 C-12.22406527 3.79317361 -12.22406527 3.79317361 -15 6 C-13.125 2.125 -13.125 2.125 -12 1 C-10.54843703 0.76578366 -9.08775657 0.58661596 -7.625 0.4375 C-6.83351562 0.35371094 -6.04203125 0.26992188 -5.2265625 0.18359375 C-3 0 -3 0 0 0 Z " fill="#C6C4CC" transform="translate(219,40)"/>
<path d="M0 0 C3.9252025 3.70090521 6.94580156 7.54959656 10 12 C9.01 12 8.02 12 7 12 C5.46484375 10.3203125 5.46484375 10.3203125 3.9375 8.125 C2.36329493 5.88986913 0.93742034 3.93742034 -1 2 C-0.67 1.34 -0.34 0.68 0 0 Z " fill="#C3DEDF" transform="translate(229,30)"/>
<path d="M0 0 C0.66 0 1.32 0 2 0 C2.9765625 1.7578125 3.953125 3.515625 4.9296875 5.2734375 C6.00897274 7.1612614 6.00897274 7.1612614 8 9 C7.34 9.66 6.68 10.32 6 11 C3.69 8.03 1.38 5.06 -1 2 C-0.67 1.34 -0.34 0.68 0 0 Z " fill="#C1C0C8" transform="translate(168,47)"/>
<path d="M0 0 C1.25 1.5625 1.25 1.5625 2 4 C0.93237266 6.57001015 -0.46544943 8.6530403 -2 11 C-2.33 10.34 -2.66 9.68 -3 9 C-3.99 8.67 -4.98 8.34 -6 8 C-5.195625 7.236875 -4.39125 6.47375 -3.5625 5.6875 C-0.83200976 3.20569102 -0.83200976 3.20569102 0 0 Z " fill="#BCD9D9" transform="translate(292,64)"/>
<path d="M0 0 C0.99 0 1.98 0 3 0 C2.67 6.6 2.34 13.2 2 20 C1.67 20 1.34 20 1 20 C0.67 13.4 0.34 6.8 0 0 Z " fill="#FAFAFC" transform="translate(49,47)"/>
<path d="M0 0 C0.99 0.33 1.98 0.66 3 1 C1.8553125 1.8971875 1.8553125 1.8971875 0.6875 2.8125 C-1.3483575 4.46959332 -3.1978279 6.10297674 -5 8 C-5.99 7.67 -6.98 7.34 -8 7 C-6.74057614 5.80040625 -5.46704714 4.61560557 -4.1875 3.4375 C-3.12595703 2.44556641 -3.12595703 2.44556641 -2.04296875 1.43359375 C-1.36878906 0.96050781 -0.69460938 0.48742188 0 0 Z " fill="#CCCCD3" transform="translate(361,44)"/>
<path d="M0 0 C2.66666667 2.66666667 5.33333333 5.33333333 8 8 C7.34 8 6.68 8 6 8 C5.67 8.66 5.34 9.32 5 10 C3.76302083 8.50260417 2.52604167 7.00520833 1.2890625 5.5078125 C0.24749008 4.28948839 -0.86660097 3.13339903 -2 2 C-1.34 2 -0.68 2 0 2 C0 1.34 0 0.68 0 0 Z " fill="#BBBAC2" transform="translate(109,41)"/>
<path d="M0 0 C0 0.66 0 1.32 0 2 C-1.8984375 3.7265625 -1.8984375 3.7265625 -4.375 5.625 C-5.59316406 6.57246094 -5.59316406 6.57246094 -6.8359375 7.5390625 C-9 9 -9 9 -11 9 C-11 8.34 -11 7.68 -11 7 C-9.1015625 5.2734375 -9.1015625 5.2734375 -6.625 3.375 C-5.40683594 2.42753906 -5.40683594 2.42753906 -4.1640625 1.4609375 C-2 0 -2 0 0 0 Z " fill="#4A4B62" transform="translate(363,42)"/>
<path d="M0 0 C0.66 0.33 1.32 0.66 2 1 C-0.64 3.64 -3.28 6.28 -6 9 C-6.33 8.34 -6.66 7.68 -7 7 C-4.78071806 4.09197539 -3.07030857 2.04687238 0 0 Z " fill="#439097" transform="translate(291,39)"/>
<path d="M0 0 C3.24299151 2.38957269 5.50902342 4.2047869 7 8 C6.34 8.66 5.68 9.32 5 10 C3.3372974 7.32521756 2.00016187 5.0004856 1 2 C0.34 1.67 -0.32 1.34 -1 1 C-0.67 0.67 -0.34 0.34 0 0 Z " fill="#C4C2C9" transform="translate(161,57)"/>
<path d="M0 0 C0.66 0.33 1.32 0.66 2 1 C-0.31 3.31 -2.62 5.62 -5 8 C-5.33 7.01 -5.66 6.02 -6 5 C-4.02 3.35 -2.04 1.7 0 0 Z " fill="#3F3D59" transform="translate(334,39)"/>
<path d="M0 0 C0.66 0.66 1.32 1.32 2 2 C0.02 3.98 -1.96 5.96 -4 8 C-4.66 7.67 -5.32 7.34 -6 7 C-4.02 4.69 -2.04 2.38 0 0 Z " fill="#373451" transform="translate(177,38)"/>
</svg>
